<svg width="100mm" height="100mm" version="1.1" viewBox="0 0 100 100" xmlns="http://www.w3.org/2000/svg">
  <g transform="translate(0,-197)">
    <g transform="matrix(1.129 0 0 1.129 -98.156 120.22)" stroke-width=".88574">
      <g transform="translate(-9.2382 -105.75)" stroke-width=".88574">
        <path d="m120.39 210.63 1.7954 18.993 18.285-12.946v-18.71z" fill="#4099d6"/>
        <g stroke-width=".88574">
          <path d="m160.55 210.63 17.292-12.851-5.5752 34.49-31.797 27.214v-15.403l18.285-14.458z" fill="#4099d6"/>
          <path d="m140.47 197.97v18.71l18.285 12.946 1.7954-18.993z" fill="#bfddf1"/>
          <path d="m103.09 197.78 5.5752 34.49 31.797 27.214v-15.403l-18.285-14.458-1.7954-18.993z" fill="#bfddf1"/>
          <path d="m122.18 229.63 18.285-12.946 18.285 12.946-18.285 14.458-18.285-14.458" fill="#7fbbe3"/>
          <path d="m120.39 210.63-17.292-12.851 37.372-21.167 37.372 21.167-17.292 12.851-20.08-12.662z" fill="#7fbbe3"/>
        </g>
      </g>
    </g>
  </g>
</svg>
